<?xml version="1.0" encoding="utf-8" standalone="no"?>
<!DOCTYPE svg PUBLIC "-//W3C//DTD SVG 1.1//EN"
  "http://www.w3.org/Graphics/SVG/1.1/DTD/svg11.dtd">
<!-- Created with matplotlib (http://matplotlib.org/) -->
<svg height="345.6pt" version="1.1" viewBox="0 0 460.8 345.6" width="460.8pt" xmlns="http://www.w3.org/2000/svg" xmlns:xlink="http://www.w3.org/1999/xlink">
 <defs>
  <style type="text/css">
*{stroke-linecap:butt;stroke-linejoin:round;}
  </style>
 </defs>
 <g id="figure_1">
  <g id="patch_1">
   <path d="M 0 345.6 
L 460.8 345.6 
L 460.8 0 
L 0 0 
z
" style="fill:#ffffff;"/>
  </g>
  <g id="axes_1">
   <g id="patch_2">
    <path d="M 30.49 317.72 
L 447.48 317.72 
L 447.48 13.32 
L 30.49 13.32 
z
" style="fill:#ffffff;"/>
   </g>
   <g id="PathCollection_1">
    <defs>
     <path d="M -4.472136 4.472136 
L 4.472136 -4.472136 
M -4.472136 -4.472136 
L 4.472136 4.472136 
" id="mece96675ad" style="stroke:#000000;stroke-width:1.5;"/>
    </defs>
    <g clip-path="url(#pd940ca5f6b)">
     <use style="stroke:#000000;stroke-width:1.5;" x="426.035873" xlink:href="#mece96675ad" y="30.071895"/>
    </g>
   </g>
   <g id="matplotlib.axis_1">
    <g id="xtick_1">
     <g id="line2d_1">
      <defs>
       <path d="M 0 0 
L 0 3.5 
" id="m137458e6ed" style="stroke:#000000;stroke-width:0.8;"/>
      </defs>
      <g>
       <use style="stroke:#000000;stroke-width:0.8;" x="49.444091" xlink:href="#m137458e6ed" y="317.72"/>
      </g>
     </g>
     <g id="text_1">
      <!-- 0 -->
      <defs>
       <path d="M 31.78125 66.40625 
Q 24.171875 66.40625 20.328125 58.90625 
Q 16.5 51.421875 16.5 36.375 
Q 16.5 21.390625 20.328125 13.890625 
Q 24.171875 6.390625 31.78125 6.390625 
Q 39.453125 6.390625 43.28125 13.890625 
Q 47.125 21.390625 47.125 36.375 
Q 47.125 51.421875 43.28125 58.90625 
Q 39.453125 66.40625 31.78125 66.40625 
z
M 31.78125 74.21875 
Q 44.046875 74.21875 50.515625 64.515625 
Q 56.984375 54.828125 56.984375 36.375 
Q 56.984375 17.96875 50.515625 8.265625 
Q 44.046875 -1.421875 31.78125 -1.421875 
Q 19.53125 -1.421875 13.0625 8.265625 
Q 6.59375 17.96875 6.59375 36.375 
Q 6.59375 54.828125 13.0625 64.515625 
Q 19.53125 74.21875 31.78125 74.21875 
z
" id="DejaVuSans-30"/>
      </defs>
      <g transform="translate(46.262841 332.318437)scale(0.1 -0.1)">
       <use xlink:href="#DejaVuSans-30"/>
      </g>
     </g>
    </g>
    <g id="xtick_2">
     <g id="line2d_2">
      <g>
       <use style="stroke:#000000;stroke-width:0.8;" x="112.209388" xlink:href="#m137458e6ed" y="317.72"/>
      </g>
     </g>
     <g id="text_2">
      <!-- 5 -->
      <defs>
       <path d="M 10.796875 72.90625 
L 49.515625 72.90625 
L 49.515625 64.59375 
L 19.828125 64.59375 
L 19.828125 46.734375 
Q 21.96875 47.46875 24.109375 47.828125 
Q 26.265625 48.1875 28.421875 48.1875 
Q 40.625 48.1875 47.75 41.5 
Q 54.890625 34.8125 54.890625 23.390625 
Q 54.890625 11.625 47.5625 5.09375 
Q 40.234375 -1.421875 26.90625 -1.421875 
Q 22.3125 -1.421875 17.546875 -0.640625 
Q 12.796875 0.140625 7.71875 1.703125 
L 7.71875 11.625 
Q 12.109375 9.234375 16.796875 8.0625 
Q 21.484375 6.890625 26.703125 6.890625 
Q 35.15625 6.890625 40.078125 11.328125 
Q 45.015625 15.765625 45.015625 23.390625 
Q 45.015625 31 40.078125 35.4375 
Q 35.15625 39.890625 26.703125 39.890625 
Q 22.75 39.890625 18.8125 39.015625 
Q 14.890625 38.140625 10.796875 36.28125 
z
" id="DejaVuSans-35"/>
      </defs>
      <g transform="translate(109.028138 332.318437)scale(0.1 -0.1)">
       <use xlink:href="#DejaVuSans-35"/>
      </g>
     </g>
    </g>
    <g id="xtick_3">
     <g id="line2d_3">
      <g>
       <use style="stroke:#000000;stroke-width:0.8;" x="174.974685" xlink:href="#m137458e6ed" y="317.72"/>
      </g>
     </g>
     <g id="text_3">
      <!-- 10 -->
      <defs>
       <path d="M 12.40625 8.296875 
L 28.515625 8.296875 
L 28.515625 63.921875 
L 10.984375 60.40625 
L 10.984375 69.390625 
L 28.421875 72.90625 
L 38.28125 72.90625 
L 38.28125 8.296875 
L 54.390625 8.296875 
L 54.390625 0 
L 12.40625 0 
z
" id="DejaVuSans-31"/>
      </defs>
      <g transform="translate(168.612185 332.318437)scale(0.1 -0.1)">
       <use xlink:href="#DejaVuSans-31"/>
       <use x="63.623047" xlink:href="#DejaVuSans-30"/>
      </g>
     </g>
    </g>
    <g id="xtick_4">
     <g id="line2d_4">
      <g>
       <use style="stroke:#000000;stroke-width:0.8;" x="237.739982" xlink:href="#m137458e6ed" y="317.72"/>
      </g>
     </g>
     <g id="text_4">
      <!-- 15 -->
      <g transform="translate(231.377482 332.318437)scale(0.1 -0.1)">
       <use xlink:href="#DejaVuSans-31"/>
       <use x="63.623047" xlink:href="#DejaVuSans-35"/>
      </g>
     </g>
    </g>
    <g id="xtick_5">
     <g id="line2d_5">
      <g>
       <use style="stroke:#000000;stroke-width:0.8;" x="300.505279" xlink:href="#m137458e6ed" y="317.72"/>
      </g>
     </g>
     <g id="text_5">
      <!-- 20 -->
      <defs>
       <path d="M 19.1875 8.296875 
L 53.609375 8.296875 
L 53.609375 0 
L 7.328125 0 
L 7.328125 8.296875 
Q 12.9375 14.109375 22.625 23.890625 
Q 32.328125 33.6875 34.8125 36.53125 
Q 39.546875 41.84375 41.421875 45.53125 
Q 43.3125 49.21875 43.3125 52.78125 
Q 43.3125 58.59375 39.234375 62.25 
Q 35.15625 65.921875 28.609375 65.921875 
Q 23.96875 65.921875 18.8125 64.3125 
Q 13.671875 62.703125 7.8125 59.421875 
L 7.8125 69.390625 
Q 13.765625 71.78125 18.9375 73 
Q 24.125 74.21875 28.421875 74.21875 
Q 39.75 74.21875 46.484375 68.546875 
Q 53.21875 62.890625 53.21875 53.421875 
Q 53.21875 48.921875 51.53125 44.890625 
Q 49.859375 40.875 45.40625 35.40625 
Q 44.1875 33.984375 37.640625 27.21875 
Q 31.109375 20.453125 19.1875 8.296875 
z
" id="DejaVuSans-32"/>
      </defs>
      <g transform="translate(294.142779 332.318437)scale(0.1 -0.1)">
       <use xlink:href="#DejaVuSans-32"/>
       <use x="63.623047" xlink:href="#DejaVuSans-30"/>
      </g>
     </g>
    </g>
    <g id="xtick_6">
     <g id="line2d_6">
      <g>
       <use style="stroke:#000000;stroke-width:0.8;" x="363.270576" xlink:href="#m137458e6ed" y="317.72"/>
      </g>
     </g>
     <g id="text_6">
      <!-- 25 -->
      <g transform="translate(356.908076 332.318437)scale(0.1 -0.1)">
       <use xlink:href="#DejaVuSans-32"/>
       <use x="63.623047" xlink:href="#DejaVuSans-35"/>
      </g>
     </g>
    </g>
    <g id="xtick_7">
     <g id="line2d_7">
      <g>
       <use style="stroke:#000000;stroke-width:0.8;" x="426.035873" xlink:href="#m137458e6ed" y="317.72"/>
      </g>
     </g>
     <g id="text_7">
      <!-- 30 -->
      <defs>
       <path d="M 40.578125 39.3125 
Q 47.65625 37.796875 51.625 33 
Q 55.609375 28.21875 55.609375 21.1875 
Q 55.609375 10.40625 48.1875 4.484375 
Q 40.765625 -1.421875 27.09375 -1.421875 
Q 22.515625 -1.421875 17.65625 -0.515625 
Q 12.796875 0.390625 7.625 2.203125 
L 7.625 11.71875 
Q 11.71875 9.328125 16.59375 8.109375 
Q 21.484375 6.890625 26.8125 6.890625 
Q 36.078125 6.890625 40.9375 10.546875 
Q 45.796875 14.203125 45.796875 21.1875 
Q 45.796875 27.640625 41.28125 31.265625 
Q 36.765625 34.90625 28.71875 34.90625 
L 20.21875 34.90625 
L 20.21875 43.015625 
L 29.109375 43.015625 
Q 36.375 43.015625 40.234375 45.921875 
Q 44.09375 48.828125 44.09375 54.296875 
Q 44.09375 59.90625 40.109375 62.90625 
Q 36.140625 65.921875 28.71875 65.921875 
Q 24.65625 65.921875 20.015625 65.03125 
Q 15.375 64.15625 9.8125 62.3125 
L 9.8125 71.09375 
Q 15.4375 72.65625 20.34375 73.4375 
Q 25.25 74.21875 29.59375 74.21875 
Q 40.828125 74.21875 47.359375 69.109375 
Q 53.90625 64.015625 53.90625 55.328125 
Q 53.90625 49.265625 50.4375 45.09375 
Q 46.96875 40.921875 40.578125 39.3125 
z
" id="DejaVuSans-33"/>
      </defs>
      <g transform="translate(419.673373 332.318437)scale(0.1 -0.1)">
       <use xlink:href="#DejaVuSans-33"/>
       <use x="63.623047" xlink:href="#DejaVuSans-30"/>
      </g>
     </g>
    </g>
   </g>
   <g id="matplotlib.axis_2">
    <g id="ytick_1">
     <g id="line2d_8">
      <defs>
       <path d="M 0 0 
L -3.5 0 
" id="m829c00f24f" style="stroke:#000000;stroke-width:0.8;"/>
      </defs>
      <g>
       <use style="stroke:#000000;stroke-width:0.8;" x="30.49" xlink:href="#m829c00f24f" y="303.883636"/>
      </g>
     </g>
     <g id="text_8">
      <!-- 0 -->
      <g transform="translate(17.1275 307.682855)scale(0.1 -0.1)">
       <use xlink:href="#DejaVuSans-30"/>
      </g>
     </g>
    </g>
    <g id="ytick_2">
     <g id="line2d_9">
      <g>
       <use style="stroke:#000000;stroke-width:0.8;" x="30.49" xlink:href="#m829c00f24f" y="249.121288"/>
      </g>
     </g>
     <g id="text_9">
      <!-- 10 -->
      <g transform="translate(10.765 252.920507)scale(0.1 -0.1)">
       <use xlink:href="#DejaVuSans-31"/>
       <use x="63.623047" xlink:href="#DejaVuSans-30"/>
      </g>
     </g>
    </g>
    <g id="ytick_3">
     <g id="line2d_10">
      <g>
       <use style="stroke:#000000;stroke-width:0.8;" x="30.49" xlink:href="#m829c00f24f" y="194.35894"/>
      </g>
     </g>
     <g id="text_10">
      <!-- 20 -->
      <g transform="translate(10.765 198.158159)scale(0.1 -0.1)">
       <use xlink:href="#DejaVuSans-32"/>
       <use x="63.623047" xlink:href="#DejaVuSans-30"/>
      </g>
     </g>
    </g>
    <g id="ytick_4">
     <g id="line2d_11">
      <g>
       <use style="stroke:#000000;stroke-width:0.8;" x="30.49" xlink:href="#m829c00f24f" y="139.596592"/>
      </g>
     </g>
     <g id="text_11">
      <!-- 30 -->
      <g transform="translate(10.765 143.395811)scale(0.1 -0.1)">
       <use xlink:href="#DejaVuSans-33"/>
       <use x="63.623047" xlink:href="#DejaVuSans-30"/>
      </g>
     </g>
    </g>
    <g id="ytick_5">
     <g id="line2d_12">
      <g>
       <use style="stroke:#000000;stroke-width:0.8;" x="30.49" xlink:href="#m829c00f24f" y="84.834244"/>
      </g>
     </g>
     <g id="text_12">
      <!-- 40 -->
      <defs>
       <path d="M 37.796875 64.3125 
L 12.890625 25.390625 
L 37.796875 25.390625 
z
M 35.203125 72.90625 
L 47.609375 72.90625 
L 47.609375 25.390625 
L 58.015625 25.390625 
L 58.015625 17.1875 
L 47.609375 17.1875 
L 47.609375 0 
L 37.796875 0 
L 37.796875 17.1875 
L 4.890625 17.1875 
L 4.890625 26.703125 
z
" id="DejaVuSans-34"/>
      </defs>
      <g transform="translate(10.765 88.633462)scale(0.1 -0.1)">
       <use xlink:href="#DejaVuSans-34"/>
       <use x="63.623047" xlink:href="#DejaVuSans-30"/>
      </g>
     </g>
    </g>
    <g id="ytick_6">
     <g id="line2d_13">
      <g>
       <use style="stroke:#000000;stroke-width:0.8;" x="30.49" xlink:href="#m829c00f24f" y="30.071895"/>
      </g>
     </g>
     <g id="text_13">
      <!-- 50 -->
      <g transform="translate(10.765 33.871114)scale(0.1 -0.1)">
       <use xlink:href="#DejaVuSans-35"/>
       <use x="63.623047" xlink:href="#DejaVuSans-30"/>
      </g>
     </g>
    </g>
   </g>
   <g id="line2d_14">
    <path clip-path="url(#pd940ca5f6b)" d="M 49.444091 84.834244 
L 51.980063 84.834244 
L 54.516034 84.834244 
L 57.052006 84.834244 
L 59.587977 84.834244 
L 62.123949 84.834244 
L 64.659921 84.834244 
L 67.195892 84.834244 
L 69.731864 84.834244 
L 72.267835 84.834244 
L 74.803807 84.834244 
L 77.339778 84.834244 
L 79.87575 84.834244 
L 82.411722 84.834244 
L 84.947693 84.834244 
L 87.483665 84.834244 
L 90.019636 84.834244 
L 92.555608 84.834244 
L 95.09158 84.834244 
L 97.627551 84.834244 
L 100.163523 84.834244 
L 102.699494 84.834244 
L 105.235466 84.834244 
L 107.771438 84.834244 
L 110.307409 84.834244 
L 112.843381 84.834244 
L 115.379352 84.834244 
L 117.915324 84.834244 
L 120.451296 84.834244 
L 122.987267 84.834244 
L 125.523239 84.834244 
L 128.05921 84.834244 
L 130.595182 84.834244 
L 133.131154 84.834244 
L 135.667125 84.834244 
L 138.203097 84.834244 
L 140.739068 84.834244 
L 143.27504 84.834244 
L 145.811012 84.834244 
L 148.346983 84.834244 
L 150.882955 84.834244 
L 153.418926 84.834244 
L 155.954898 84.834244 
L 158.49087 84.834244 
L 161.026841 84.834244 
L 163.562813 84.834244 
L 166.098784 84.834244 
L 168.634756 84.834244 
L 171.170728 84.834244 
L 173.706699 84.834244 
L 176.242671 84.834244 
L 178.778642 84.834244 
L 181.314614 84.834244 
L 183.850586 84.834244 
L 186.386557 84.834244 
L 188.922529 84.834244 
L 191.4585 84.834244 
L 193.994472 84.834244 
L 196.530444 84.834244 
L 199.066415 84.834244 
L 201.602387 84.834244 
L 204.138358 84.834244 
L 206.67433 84.834244 
L 209.210302 84.834244 
L 211.746273 84.834244 
L 214.282245 84.834244 
L 216.818216 84.834244 
L 219.354188 84.834244 
L 221.89016 84.834244 
L 224.426131 84.834244 
L 226.962103 84.834244 
L 229.498074 84.834244 
L 232.034046 84.834244 
L 234.570018 84.834244 
L 237.105989 84.834244 
L 239.641961 84.834244 
L 242.177932 84.834244 
L 244.713904 84.834244 
L 247.249876 84.834244 
L 249.785847 84.834244 
L 252.321819 84.834244 
L 254.85779 84.834244 
L 257.393762 84.834244 
L 259.929734 84.834244 
L 262.465705 84.834244 
L 265.001677 84.834244 
L 267.537648 84.834244 
L 270.07362 84.834244 
L 272.609592 84.834244 
L 275.145563 84.834244 
L 277.681535 84.834244 
L 280.217506 84.834244 
L 282.753478 84.834244 
L 285.28945 84.834244 
L 287.825421 84.834244 
L 290.361393 84.834244 
L 292.897364 84.834244 
L 295.433336 84.834244 
L 297.969308 84.834244 
L 300.505279 84.834244 
" style="fill:none;stroke:#000000;stroke-linecap:square;stroke-width:5;"/>
   </g>
   <g id="line2d_15">
    <path clip-path="url(#pd940ca5f6b)" d="M 300.505279 303.883636 
L 300.505279 301.671016 
L 300.505279 299.458396 
L 300.505279 297.245776 
L 300.505279 295.033156 
L 300.505279 292.820536 
L 300.505279 290.607916 
L 300.505279 288.395295 
L 300.505279 286.182675 
L 300.505279 283.970055 
L 300.505279 281.757435 
L 300.505279 279.544815 
L 300.505279 277.332195 
L 300.505279 275.119575 
L 300.505279 272.906955 
L 300.505279 270.694334 
L 300.505279 268.481714 
L 300.505279 266.269094 
L 300.505279 264.056474 
L 300.505279 261.843854 
L 300.505279 259.631234 
L 300.505279 257.418614 
L 300.505279 255.205994 
L 300.505279 252.993373 
L 300.505279 250.780753 
L 300.505279 248.568133 
L 300.505279 246.355513 
L 300.505279 244.142893 
L 300.505279 241.930273 
L 300.505279 239.717653 
L 300.505279 237.505032 
L 300.505279 235.292412 
L 300.505279 233.079792 
L 300.505279 230.867172 
L 300.505279 228.654552 
L 300.505279 226.441932 
L 300.505279 224.229312 
L 300.505279 222.016692 
L 300.505279 219.804071 
L 300.505279 217.591451 
L 300.505279 215.378831 
L 300.505279 213.166211 
L 300.505279 210.953591 
L 300.505279 208.740971 
L 300.505279 206.528351 
L 300.505279 204.315731 
L 300.505279 202.10311 
L 300.505279 199.89049 
L 300.505279 197.67787 
L 300.505279 195.46525 
L 300.505279 193.25263 
L 300.505279 191.04001 
L 300.505279 188.82739 
L 300.505279 186.61477 
L 300.505279 184.402149 
L 300.505279 182.189529 
L 300.505279 179.976909 
L 300.505279 177.764289 
L 300.505279 175.551669 
L 300.505279 173.339049 
L 300.505279 171.126429 
L 300.505279 168.913808 
L 300.505279 166.701188 
L 300.505279 164.488568 
L 300.505279 162.275948 
L 300.505279 160.063328 
L 300.505279 157.850708 
L 300.505279 155.638088 
L 300.505279 153.425468 
L 300.505279 151.212847 
L 300.505279 149.000227 
L 300.505279 146.787607 
L 300.505279 144.574987 
L 300.505279 142.362367 
L 300.505279 140.149747 
L 300.505279 137.937127 
L 300.505279 135.724507 
L 300.505279 133.511886 
L 300.505279 131.299266 
L 300.505279 129.086646 
L 300.505279 126.874026 
L 300.505279 124.661406 
L 300.505279 122.448786 
L 300.505279 120.236166 
L 300.505279 118.023546 
L 300.505279 115.810925 
L 300.505279 113.598305 
L 300.505279 111.385685 
L 300.505279 109.173065 
L 300.505279 106.960445 
L 300.505279 104.747825 
L 300.505279 102.535205 
L 300.505279 100.322584 
L 300.505279 98.109964 
L 300.505279 95.897344 
L 300.505279 93.684724 
L 300.505279 91.472104 
L 300.505279 89.259484 
L 300.505279 87.046864 
L 300.505279 84.834244 
" style="fill:none;stroke:#000000;stroke-linecap:square;stroke-width:5;"/>
   </g>
   <g id="line2d_16">
    <path clip-path="url(#pd940ca5f6b)" d="M 49.444091 303.883636 
L 51.980063 303.883636 
L 54.516034 303.883636 
L 57.052006 303.883636 
L 59.587977 303.883636 
L 62.123949 303.883636 
L 64.659921 303.883636 
L 67.195892 303.883636 
L 69.731864 303.883636 
L 72.267835 303.883636 
L 74.803807 303.883636 
L 77.339778 303.883636 
L 79.87575 303.883636 
L 82.411722 303.883636 
L 84.947693 303.883636 
L 87.483665 303.883636 
L 90.019636 303.883636 
L 92.555608 303.883636 
L 95.09158 303.883636 
L 97.627551 303.883636 
L 100.163523 303.883636 
L 102.699494 303.883636 
L 105.235466 303.883636 
L 107.771438 303.883636 
L 110.307409 303.883636 
L 112.843381 303.883636 
L 115.379352 303.883636 
L 117.915324 303.883636 
L 120.451296 303.883636 
L 122.987267 303.883636 
L 125.523239 303.883636 
L 128.05921 303.883636 
L 130.595182 303.883636 
L 133.131154 303.883636 
L 135.667125 303.883636 
L 138.203097 303.883636 
L 140.739068 303.883636 
L 143.27504 303.883636 
L 145.811012 303.883636 
L 148.346983 303.883636 
L 150.882955 303.883636 
L 153.418926 303.883636 
L 155.954898 303.883636 
L 158.49087 303.883636 
L 161.026841 303.883636 
L 163.562813 303.883636 
L 166.098784 303.883636 
L 168.634756 303.883636 
L 171.170728 303.883636 
L 173.706699 303.883636 
L 176.242671 303.883636 
L 178.778642 303.883636 
L 181.314614 303.883636 
L 183.850586 303.883636 
L 186.386557 303.883636 
L 188.922529 303.883636 
L 191.4585 303.883636 
L 193.994472 303.883636 
L 196.530444 303.883636 
L 199.066415 303.883636 
L 201.602387 303.883636 
L 204.138358 303.883636 
L 206.67433 303.883636 
L 209.210302 303.883636 
L 211.746273 303.883636 
L 214.282245 303.883636 
L 216.818216 303.883636 
L 219.354188 303.883636 
L 221.89016 303.883636 
L 224.426131 303.883636 
L 226.962103 303.883636 
L 229.498074 303.883636 
L 232.034046 303.883636 
L 234.570018 303.883636 
L 237.105989 303.883636 
L 239.641961 303.883636 
L 242.177932 303.883636 
L 244.713904 303.883636 
L 247.249876 303.883636 
L 249.785847 303.883636 
L 252.321819 303.883636 
L 254.85779 303.883636 
L 257.393762 303.883636 
L 259.929734 303.883636 
L 262.465705 303.883636 
L 265.001677 303.883636 
L 267.537648 303.883636 
L 270.07362 303.883636 
L 272.609592 303.883636 
L 275.145563 303.883636 
L 277.681535 303.883636 
L 280.217506 303.883636 
L 282.753478 303.883636 
L 285.28945 303.883636 
L 287.825421 303.883636 
L 290.361393 303.883636 
L 292.897364 303.883636 
L 295.433336 303.883636 
L 297.969308 303.883636 
L 300.505279 303.883636 
" style="fill:none;stroke:#000000;stroke-linecap:square;stroke-width:5;"/>
   </g>
   <g id="line2d_17">
    <path clip-path="url(#pd940ca5f6b)" d="M 49.444091 303.883636 
L 49.444091 301.671016 
L 49.444091 299.458396 
L 49.444091 297.245776 
L 49.444091 295.033156 
L 49.444091 292.820536 
L 49.444091 290.607916 
L 49.444091 288.395295 
L 49.444091 286.182675 
L 49.444091 283.970055 
L 49.444091 281.757435 
L 49.444091 279.544815 
L 49.444091 277.332195 
L 49.444091 275.119575 
L 49.444091 272.906955 
L 49.444091 270.694334 
L 49.444091 268.481714 
L 49.444091 266.269094 
L 49.444091 264.056474 
L 49.444091 261.843854 
L 49.444091 259.631234 
L 49.444091 257.418614 
L 49.444091 255.205994 
L 49.444091 252.993373 
L 49.444091 250.780753 
L 49.444091 248.568133 
L 49.444091 246.355513 
L 49.444091 244.142893 
L 49.444091 241.930273 
L 49.444091 239.717653 
L 49.444091 237.505032 
L 49.444091 235.292412 
L 49.444091 233.079792 
L 49.444091 230.867172 
L 49.444091 228.654552 
L 49.444091 226.441932 
L 49.444091 224.229312 
L 49.444091 222.016692 
L 49.444091 219.804071 
L 49.444091 217.591451 
L 49.444091 215.378831 
L 49.444091 213.166211 
L 49.444091 210.953591 
L 49.444091 208.740971 
L 49.444091 206.528351 
L 49.444091 204.315731 
L 49.444091 202.10311 
L 49.444091 199.89049 
L 49.444091 197.67787 
L 49.444091 195.46525 
L 49.444091 193.25263 
L 49.444091 191.04001 
L 49.444091 188.82739 
L 49.444091 186.61477 
L 49.444091 184.402149 
L 49.444091 182.189529 
L 49.444091 179.976909 
L 49.444091 177.764289 
L 49.444091 175.551669 
L 49.444091 173.339049 
L 49.444091 171.126429 
L 49.444091 168.913808 
L 49.444091 166.701188 
L 49.444091 164.488568 
L 49.444091 162.275948 
L 49.444091 160.063328 
L 49.444091 157.850708 
L 49.444091 155.638088 
L 49.444091 153.425468 
L 49.444091 151.212847 
L 49.444091 149.000227 
L 49.444091 146.787607 
L 49.444091 144.574987 
L 49.444091 142.362367 
L 49.444091 140.149747 
L 49.444091 137.937127 
L 49.444091 135.724507 
L 49.444091 133.511886 
L 49.444091 131.299266 
L 49.444091 129.086646 
L 49.444091 126.874026 
L 49.444091 124.661406 
L 49.444091 122.448786 
L 49.444091 120.236166 
L 49.444091 118.023546 
L 49.444091 115.810925 
L 49.444091 113.598305 
L 49.444091 111.385685 
L 49.444091 109.173065 
L 49.444091 106.960445 
L 49.444091 104.747825 
L 49.444091 102.535205 
L 49.444091 100.322584 
L 49.444091 98.109964 
L 49.444091 95.897344 
L 49.444091 93.684724 
L 49.444091 91.472104 
L 49.444091 89.259484 
L 49.444091 87.046864 
L 49.444091 84.834244 
" style="fill:none;stroke:#000000;stroke-linecap:square;stroke-width:5;"/>
   </g>
   <g id="line2d_18">
    <path clip-path="url(#pd940ca5f6b)" d="M 112.209388 249.121288 
L 113.477374 249.121288 
L 114.74536 249.121288 
L 116.013345 249.121288 
L 117.281331 249.121288 
L 118.549317 249.121288 
L 119.817303 249.121288 
L 121.085289 249.121288 
L 122.353274 249.121288 
L 123.62126 249.121288 
L 124.889246 249.121288 
L 126.157232 249.121288 
L 127.425218 249.121288 
L 128.693203 249.121288 
L 129.961189 249.121288 
L 131.229175 249.121288 
L 132.497161 249.121288 
L 133.765147 249.121288 
L 135.033132 249.121288 
L 136.301118 249.121288 
L 137.569104 249.121288 
L 138.83709 249.121288 
L 140.105076 249.121288 
L 141.373061 249.121288 
L 142.641047 249.121288 
L 143.909033 249.121288 
L 145.177019 249.121288 
L 146.445005 249.121288 
L 147.71299 249.121288 
L 148.980976 249.121288 
L 150.248962 249.121288 
L 151.516948 249.121288 
L 152.784934 249.121288 
L 154.052919 249.121288 
L 155.320905 249.121288 
L 156.588891 249.121288 
L 157.856877 249.121288 
L 159.124863 249.121288 
L 160.392848 249.121288 
L 161.660834 249.121288 
L 162.92882 249.121288 
L 164.196806 249.121288 
L 165.464792 249.121288 
L 166.732777 249.121288 
L 168.000763 249.121288 
L 169.268749 249.121288 
L 170.536735 249.121288 
L 171.804721 249.121288 
L 173.072706 249.121288 
L 174.340692 249.121288 
L 175.608678 249.121288 
L 176.876664 249.121288 
L 178.14465 249.121288 
L 179.412635 249.121288 
L 180.680621 249.121288 
L 181.948607 249.121288 
L 183.216593 249.121288 
L 184.484579 249.121288 
L 185.752564 249.121288 
L 187.02055 249.121288 
L 188.288536 249.121288 
L 189.556522 249.121288 
L 190.824508 249.121288 
L 192.092493 249.121288 
L 193.360479 249.121288 
L 194.628465 249.121288 
L 195.896451 249.121288 
L 197.164437 249.121288 
L 198.432422 249.121288 
L 199.700408 249.121288 
L 200.968394 249.121288 
L 202.23638 249.121288 
L 203.504366 249.121288 
L 204.772351 249.121288 
L 206.040337 249.121288 
L 207.308323 249.121288 
L 208.576309 249.121288 
L 209.844295 249.121288 
L 211.11228 249.121288 
L 212.380266 249.121288 
L 213.648252 249.121288 
L 214.916238 249.121288 
L 216.184224 249.121288 
L 217.452209 249.121288 
L 218.720195 249.121288 
L 219.988181 249.121288 
L 221.256167 249.121288 
L 222.524153 249.121288 
L 223.792138 249.121288 
L 225.060124 249.121288 
L 226.32811 249.121288 
L 227.596096 249.121288 
L 228.864082 249.121288 
L 230.132067 249.121288 
L 231.400053 249.121288 
L 232.668039 249.121288 
L 233.936025 249.121288 
L 235.204011 249.121288 
L 236.471996 249.121288 
L 237.739982 249.121288 
" style="fill:none;stroke:#000000;stroke-linecap:square;stroke-width:1.5;"/>
   </g>
   <g id="line2d_19">
    <path clip-path="url(#pd940ca5f6b)" d="M 112.209388 194.35894 
L 113.477374 194.35894 
L 114.74536 194.35894 
L 116.013345 194.35894 
L 117.281331 194.35894 
L 118.549317 194.35894 
L 119.817303 194.35894 
L 121.085289 194.35894 
L 122.353274 194.35894 
L 123.62126 194.35894 
L 124.889246 194.35894 
L 126.157232 194.35894 
L 127.425218 194.35894 
L 128.693203 194.35894 
L 129.961189 194.35894 
L 131.229175 194.35894 
L 132.497161 194.35894 
L 133.765147 194.35894 
L 135.033132 194.35894 
L 136.301118 194.35894 
L 137.569104 194.35894 
L 138.83709 194.35894 
L 140.105076 194.35894 
L 141.373061 194.35894 
L 142.641047 194.35894 
L 143.909033 194.35894 
L 145.177019 194.35894 
L 146.445005 194.35894 
L 147.71299 194.35894 
L 148.980976 194.35894 
L 150.248962 194.35894 
L 151.516948 194.35894 
L 152.784934 194.35894 
L 154.052919 194.35894 
L 155.320905 194.35894 
L 156.588891 194.35894 
L 157.856877 194.35894 
L 159.124863 194.35894 
L 160.392848 194.35894 
L 161.660834 194.35894 
L 162.92882 194.35894 
L 164.196806 194.35894 
L 165.464792 194.35894 
L 166.732777 194.35894 
L 168.000763 194.35894 
L 169.268749 194.35894 
L 170.536735 194.35894 
L 171.804721 194.35894 
L 173.072706 194.35894 
L 174.340692 194.35894 
L 175.608678 194.35894 
L 176.876664 194.35894 
L 178.14465 194.35894 
L 179.412635 194.35894 
L 180.680621 194.35894 
L 181.948607 194.35894 
L 183.216593 194.35894 
L 184.484579 194.35894 
L 185.752564 194.35894 
L 187.02055 194.35894 
L 188.288536 194.35894 
L 189.556522 194.35894 
L 190.824508 194.35894 
L 192.092493 194.35894 
L 193.360479 194.35894 
L 194.628465 194.35894 
L 195.896451 194.35894 
L 197.164437 194.35894 
L 198.432422 194.35894 
L 199.700408 194.35894 
L 200.968394 194.35894 
L 202.23638 194.35894 
L 203.504366 194.35894 
L 204.772351 194.35894 
L 206.040337 194.35894 
L 207.308323 194.35894 
L 208.576309 194.35894 
L 209.844295 194.35894 
L 211.11228 194.35894 
L 212.380266 194.35894 
L 213.648252 194.35894 
L 214.916238 194.35894 
L 216.184224 194.35894 
L 217.452209 194.35894 
L 218.720195 194.35894 
L 219.988181 194.35894 
L 221.256167 194.35894 
L 222.524153 194.35894 
L 223.792138 194.35894 
L 225.060124 194.35894 
L 226.32811 194.35894 
L 227.596096 194.35894 
L 228.864082 194.35894 
L 230.132067 194.35894 
L 231.400053 194.35894 
L 232.668039 194.35894 
L 233.936025 194.35894 
L 235.204011 194.35894 
L 236.471996 194.35894 
L 237.739982 194.35894 
" style="fill:none;stroke:#000000;stroke-linecap:square;stroke-width:1.5;"/>
   </g>
   <g id="line2d_20">
    <path clip-path="url(#pd940ca5f6b)" d="M 112.209388 139.596592 
L 113.477374 139.596592 
L 114.74536 139.596592 
L 116.013345 139.596592 
L 117.281331 139.596592 
L 118.549317 139.596592 
L 119.817303 139.596592 
L 121.085289 139.596592 
L 122.353274 139.596592 
L 123.62126 139.596592 
L 124.889246 139.596592 
L 126.157232 139.596592 
L 127.425218 139.596592 
L 128.693203 139.596592 
L 129.961189 139.596592 
L 131.229175 139.596592 
L 132.497161 139.596592 
L 133.765147 139.596592 
L 135.033132 139.596592 
L 136.301118 139.596592 
L 137.569104 139.596592 
L 138.83709 139.596592 
L 140.105076 139.596592 
L 141.373061 139.596592 
L 142.641047 139.596592 
L 143.909033 139.596592 
L 145.177019 139.596592 
L 146.445005 139.596592 
L 147.71299 139.596592 
L 148.980976 139.596592 
L 150.248962 139.596592 
L 151.516948 139.596592 
L 152.784934 139.596592 
L 154.052919 139.596592 
L 155.320905 139.596592 
L 156.588891 139.596592 
L 157.856877 139.596592 
L 159.124863 139.596592 
L 160.392848 139.596592 
L 161.660834 139.596592 
L 162.92882 139.596592 
L 164.196806 139.596592 
L 165.464792 139.596592 
L 166.732777 139.596592 
L 168.000763 139.596592 
L 169.268749 139.596592 
L 170.536735 139.596592 
L 171.804721 139.596592 
L 173.072706 139.596592 
L 174.340692 139.596592 
L 175.608678 139.596592 
L 176.876664 139.596592 
L 178.14465 139.596592 
L 179.412635 139.596592 
L 180.680621 139.596592 
L 181.948607 139.596592 
L 183.216593 139.596592 
L 184.484579 139.596592 
L 185.752564 139.596592 
L 187.02055 139.596592 
L 188.288536 139.596592 
L 189.556522 139.596592 
L 190.824508 139.596592 
L 192.092493 139.596592 
L 193.360479 139.596592 
L 194.628465 139.596592 
L 195.896451 139.596592 
L 197.164437 139.596592 
L 198.432422 139.596592 
L 199.700408 139.596592 
L 200.968394 139.596592 
L 202.23638 139.596592 
L 203.504366 139.596592 
L 204.772351 139.596592 
L 206.040337 139.596592 
L 207.308323 139.596592 
L 208.576309 139.596592 
L 209.844295 139.596592 
L 211.11228 139.596592 
L 212.380266 139.596592 
L 213.648252 139.596592 
L 214.916238 139.596592 
L 216.184224 139.596592 
L 217.452209 139.596592 
L 218.720195 139.596592 
L 219.988181 139.596592 
L 221.256167 139.596592 
L 222.524153 139.596592 
L 223.792138 139.596592 
L 225.060124 139.596592 
L 226.32811 139.596592 
L 227.596096 139.596592 
L 228.864082 139.596592 
L 230.132067 139.596592 
L 231.400053 139.596592 
L 232.668039 139.596592 
L 233.936025 139.596592 
L 235.204011 139.596592 
L 236.471996 139.596592 
L 237.739982 139.596592 
" style="fill:none;stroke:#000000;stroke-linecap:square;stroke-width:1.5;"/>
   </g>
   <g id="line2d_21">
    <path clip-path="url(#pd940ca5f6b)" d="M 237.739982 112.215418 
L 112.209388 112.215418 
L 80.826739 139.596592 
L 112.209388 166.977766 
L 237.739982 166.977766 
L 269.122631 194.35894 
L 237.739982 221.740114 
L 112.209388 221.740114 
L 80.826739 249.121288 
L 112.209388 276.502462 
L 237.739982 276.502462 
" style="fill:none;stroke:#000000;stroke-linecap:square;stroke-width:1.5;"/>
    <defs>
     <path d="M 0 1.5 
C 0.397805 1.5 0.77937 1.341951 1.06066 1.06066 
C 1.341951 0.77937 1.5 0.397805 1.5 0 
C 1.5 -0.397805 1.341951 -0.77937 1.06066 -1.06066 
C 0.77937 -1.341951 0.397805 -1.5 0 -1.5 
C -0.397805 -1.5 -0.77937 -1.341951 -1.06066 -1.06066 
C -1.341951 -0.77937 -1.5 -0.397805 -1.5 0 
C -1.5 0.397805 -1.341951 0.77937 -1.06066 1.06066 
C -0.77937 1.341951 -0.397805 1.5 0 1.5 
z
" id="mdf84176430" style="stroke:#000000;"/>
    </defs>
    <g clip-path="url(#pd940ca5f6b)">
     <use style="stroke:#000000;" x="237.739982" xlink:href="#mdf84176430" y="112.215418"/>
     <use style="stroke:#000000;" x="112.209388" xlink:href="#mdf84176430" y="112.215418"/>
     <use style="stroke:#000000;" x="80.826739" xlink:href="#mdf84176430" y="139.596592"/>
     <use style="stroke:#000000;" x="112.209388" xlink:href="#mdf84176430" y="166.977766"/>
     <use style="stroke:#000000;" x="237.739982" xlink:href="#mdf84176430" y="166.977766"/>
     <use style="stroke:#000000;" x="269.122631" xlink:href="#mdf84176430" y="194.35894"/>
     <use style="stroke:#000000;" x="237.739982" xlink:href="#mdf84176430" y="221.740114"/>
     <use style="stroke:#000000;" x="112.209388" xlink:href="#mdf84176430" y="221.740114"/>
     <use style="stroke:#000000;" x="80.826739" xlink:href="#mdf84176430" y="249.121288"/>
     <use style="stroke:#000000;" x="112.209388" xlink:href="#mdf84176430" y="276.502462"/>
     <use style="stroke:#000000;" x="237.739982" xlink:href="#mdf84176430" y="276.502462"/>
    </g>
   </g>
   <g id="patch_3">
    <path d="M 30.49 317.72 
L 30.49 13.32 
" style="fill:none;stroke:#000000;stroke-linecap:square;stroke-linejoin:miter;stroke-width:0.8;"/>
   </g>
   <g id="patch_4">
    <path d="M 447.48 317.72 
L 447.48 13.32 
" style="fill:none;stroke:#000000;stroke-linecap:square;stroke-linejoin:miter;stroke-width:0.8;"/>
   </g>
   <g id="patch_5">
    <path d="M 30.49 317.72 
L 447.48 317.72 
" style="fill:none;stroke:#000000;stroke-linecap:square;stroke-linejoin:miter;stroke-width:0.8;"/>
   </g>
   <g id="patch_6">
    <path d="M 30.49 13.32 
L 447.48 13.32 
" style="fill:none;stroke:#000000;stroke-linecap:square;stroke-linejoin:miter;stroke-width:0.8;"/>
   </g>
  </g>
 </g>
 <defs>
  <clipPath id="pd940ca5f6b">
   <rect height="304.4" width="416.99" x="30.49" y="13.32"/>
  </clipPath>
 </defs>
</svg>
